<?xml version="1.0" encoding="utf-8"?>
<!-- Svg Vector Icons : http://www.onlinewebfonts.com/icon -->
<!DOCTYPE svg PUBLIC "-//W3C//DTD SVG 1.1//EN" "http://www.w3.org/Graphics/SVG/1.1/DTD/svg11.dtd">
<svg version="1.1" xmlns="http://www.w3.org/2000/svg" xmlns:xlink="http://www.w3.org/1999/xlink" x="0px" y="0px" viewBox="0 0 1000 1000" enable-background="new 0 0 1000 1000" xml:space="preserve">
<metadata> Svg Vector Icons : http://www.onlinewebfonts.com/icon </metadata>
<g><path d="M565.1,746l-51.4-48.5l-69.2-65.2v335.5h124.6V750.1L565.1,746z"/><path d="M268,729.7v238.1h124.6V597.6L268,729.7z"/><path d="M157.4,846.9l-66-62.3v183.1H216v-183L157.4,846.9z"/><path d="M882.3,409.7l-84.6,89.6v468.4h124.6V447.5L882.3,409.7z"/><path d="M621.1,686.6v281.2h124.6V554.4L621.1,686.6z"/><path d="M627.1,32.2l319.5,29.3L990,378.1L882.3,274.7L565.1,611l-51.4-48.5l-96.1-90.6L399.8,455L157.4,711.9L10,572.8l242.3-256.9l67.2-71.2l67.2-71.2L552,329.4l182.8-193.8L627.1,32.2z"/></g>
</svg>